<?xml version="1.0" encoding="UTF-8"?>
<svg width="323px" height="200px" viewBox="0 0 323 200" version="1.1" xmlns="http://www.w3.org/2000/svg" xmlns:xlink="http://www.w3.org/1999/xlink">
    <!-- Generator: Sketch 46.2 (44496) - http://www.bohemiancoding.com/sketch -->
    <title>Artboard 2</title>
    <desc>Created with Sketch.</desc>
    <defs></defs>
    <g id="News-black" stroke="none" stroke-width="1" fill="none" fill-rule="evenodd">
        <g id="Artboard-2" fill="#FFFFFF">
            <g id="logo2" transform="translate(12.000000, 55.000000)">
                <g id="Group">
                    <rect id="Rectangle-path" fill-rule="nonzero" x="26.6959485" y="53.3411137" width="6.25520114" height="37.0788153"></rect>
                    <polygon id="Shape" points="50.8663828 90.3582659 56.8764322 90.3582659 56.8764322 66.2441252 82.1883545 90.9325039 82.1883545 53.2794506 76.1897966 53.2794506 76.1897966 76.985073 50.8663828 52.7090666"></polygon>
                    <path d="M98.2534577,81.1434808 C101.539296,83.8870867 105.666612,85.4038006 109.936473,85.4367767 C114.150019,85.4367767 117.08418,83.9298838 117.08418,80.6039283 C117.08418,77.7057609 115.207236,76.5688468 111.913009,75.2931906 L106.584788,73.3662176 C101.674091,71.551009 97.939357,68.8917862 97.939357,62.7909895 C97.939357,56.2624049 103.59317,52.7129205 110.353997,52.7129205 C114.494764,52.7129205 118.271634,53.7958794 121.221116,55.7228524 L121.221116,62.1974818 C118.156719,59.8350129 114.797373,58.2086476 110.495725,58.2086476 C106.783974,58.2086476 104.006864,59.6538774 104.006864,62.6638093 C104.006864,65.3885492 105.74974,66.475362 108.814137,67.5698827 L114.751407,69.7396543 C120.497152,71.8477628 123.144025,75.1351788 123.144025,80.4921639 C123.144025,87.2596932 117.436585,90.994167 109.944134,90.994167 C105.021945,90.994167 100.839043,89.5566451 98.2611187,87.7491444 L98.2534577,81.1434808 Z" id="Shape"></path>
                    <rect id="Rectangle-path" fill-rule="nonzero" x="139.327874" y="53.3411137" width="6.24754014" height="37.0788153"></rect>
                    <path d="M163.846883,53.3411137 L177.950772,53.3411137 C188.814061,53.3411137 195.839192,60.5865324 195.839192,71.8708865 C195.839192,83.1552407 188.814061,90.419929 177.950772,90.419929 L163.835392,90.419929 L163.846883,53.3411137 Z M177.724773,84.8085835 C185.454715,84.8085835 189.599313,79.7984536 189.599313,71.8708865 C189.599313,63.8932181 185.466207,58.89465 177.724773,58.89465 L170.06378,58.89465 L170.06378,84.8085835 L177.724773,84.8085835 Z" id="Shape"></path>
                    <polygon id="Shape" points="231.37088 53.3411137 231.37088 58.89465 215.167878 58.89465 215.167878 67.8165352 229.700783 67.8165352 229.700783 73.3045545 215.167878 73.3045545 215.167878 84.8085835 231.37088 84.8085835 231.37088 90.419929 209.050575 90.419929 209.050575 53.3411137"></polygon>
                    <path d="M256.269108,75.3741235 L256.269108,90.4045132 L250.040721,90.4045132 L250.040721,53.3411137 L263.370849,53.3411137 C270.982046,53.3411137 275.900404,57.1950598 275.900404,64.4558942 C275.900404,70.6646014 273.16926,74.2295015 267.346905,75.1428867 L280.608084,90.4160751 L273.521665,90.4160751 L260.700993,75.3856853 L256.269108,75.3741235 Z M256.269108,70.1289029 L263.267426,70.1289029 C267.412023,70.1289029 269.748626,67.8897602 269.748626,64.4558942 C269.748626,61.0220283 267.412023,58.7790316 263.267426,58.7790316 L256.269108,58.7790316 L256.269108,70.1289029 Z" id="Shape"></path>
                    <path d="M273.459161,35.3445396 C276.056237,37.1674561 280.281275,38.6242477 285.234107,38.6242477 C292.784017,38.6242477 298.51827,34.8589424 298.51827,28.0528736 C298.51827,22.6573491 295.859905,19.3660791 290.064364,17.2387009 L284.084958,15.0496595 C281.020561,13.9551388 279.254702,12.8606181 279.254702,10.1281703 C279.254702,7.0912608 282.031812,5.63061523 285.766547,5.63061523 C290.11416,5.63061523 293.496489,7.27239627 296.576208,9.63871917 L296.576208,3.14482001 C293.619065,1.21784696 289.811551,0.10791049 285.647801,0.10791049 C278.825686,0.10791049 273.14889,3.69208035 273.14889,10.2553505 C273.14889,16.3908327 276.891286,19.0654713 281.844118,20.8883878 L287.206813,22.8153608 C290.527854,24.091017 292.400967,25.2472008 292.400967,28.1607841 C292.400967,31.5021553 289.443823,33.0206101 285.214955,33.0206101 C280.913717,32.9889467 276.754932,31.4657945 273.440008,28.7080444 L273.459161,35.3445396 Z M235.537243,35.3445396 C238.13432,37.1674561 242.359358,38.6242477 247.31219,38.6242477 C254.862099,38.6242477 260.596353,34.8589424 260.596353,28.0528736 C260.596353,22.6573491 257.937988,19.3660791 252.142446,17.2387009 L246.163041,15.0496595 C243.098644,13.9551388 241.332785,12.8606181 241.332785,10.1281703 C241.332785,7.0912608 244.109895,5.63061523 247.844629,5.63061523 C252.192243,5.63061523 255.574571,7.27239627 258.654291,9.63871917 L258.654291,3.14482001 C255.697147,1.21784696 251.889634,0.10791049 247.725884,0.10791049 C240.903769,0.10791049 235.226973,3.69208035 235.226973,10.2553505 C235.226973,16.3908327 238.969368,19.0654713 243.9222,20.8883878 L249.284896,22.8153608 C252.605936,24.091017 254.479049,25.2472008 254.479049,28.1607841 C254.479049,31.5021553 251.521906,33.0206101 247.293038,33.0206101 C242.9918,32.9889467 238.833014,31.4657945 235.518091,28.7080444 L235.537243,35.3445396 Z M220.916237,0.747665541 L220.916237,6.33588737 L204.605982,6.33588737 L204.605982,15.3117278 L219.230819,15.3117278 L219.230819,20.8344326 L204.605982,20.8344326 L204.605982,32.3962708 L220.912407,32.3962708 L220.912407,38.0423018 L198.454204,38.0423018 L198.454204,0.747665541 L220.916237,0.747665541 Z M150.155471,37.9960545 L156.203826,37.9960545 L156.203826,13.7161941 L181.672798,38.5625846 L181.672798,0.682148458 L175.632105,0.682148458 L175.632105,24.5380747 L150.155471,0.10791049 L150.155471,37.9960545 Z M132.228747,0.739957649 L125.950563,0.739957649 L125.950563,38.0461558 L132.228747,38.0461558 L132.228747,0.739957649 Z M84.7305874,35.3715172 C87.3276641,37.1944337 91.552702,38.6512253 96.5055343,38.6512253 C104.055443,38.6512253 109.789697,34.88592 109.789697,28.0798512 C109.789697,22.6843267 107.131332,19.3930567 101.335791,17.2656785 L95.3563853,15.0766371 C92.2919879,13.9821164 90.5261289,12.8875957 90.5261289,10.1551479 C90.5261289,7.11823842 93.303239,5.65759286 97.0379733,5.65759286 C101.385587,5.65759286 104.767916,7.29937389 107.847635,9.66569679 L107.847635,3.17179763 C104.890492,1.24482459 101.082978,0.134888113 96.9192279,0.134888113 C90.0971133,0.134888113 84.4203171,3.71905798 84.4203171,10.2823282 C84.4203171,16.4178103 88.1627124,19.0924489 93.1155447,20.9153654 L98.4782401,22.8423385 C101.799281,24.1179946 103.672394,25.2741784 103.672394,28.1877617 C103.672394,31.5291329 100.71525,33.0475877 96.4863818,33.0475877 C92.1851439,33.0159243 88.0263584,31.4927721 84.7114349,28.735022 L84.7305874,35.3715172 Z M55.0863733,38.6512253 C63.9616342,38.6512253 69.9410395,33.4252744 69.9410395,23.235441 L69.9410395,0.739957649 L63.6628554,0.739957649 L63.6628554,22.4916294 C63.6628554,29.6599691 60.644424,33.0013404 55.0863733,33.0013404 C49.5283225,33.0013404 46.5098911,29.6599691 46.5098911,22.4916294 L46.5098911,0.739957649 L40.2202155,0.739957649 L40.2202155,23.158362 C40.2202155,33.4252744 46.2685698,38.6512253 55.0863733,38.6512253 Z M6.10581177,21.6399073 L14.0770754,21.6399073 C18.2906218,21.6399073 20.5889199,23.7056224 20.5889199,27.1086568 C20.5889199,30.450028 18.2906218,32.5774063 14.0770754,32.5774063 L6.10581177,32.5774063 L6.10581177,21.6399073 Z M6.10581177,16.4139564 L6.10581177,6.20870715 L12.9279264,6.20870715 C17.2142522,6.20870715 19.5087198,7.72716191 19.5087198,11.2496686 C19.5087198,14.7721754 17.2104217,16.4139564 12.9279264,16.4139564 L6.10581177,16.4139564 Z M20.7191567,18.7841332 C23.4349789,17.8129388 25.5494131,14.8955016 25.5494131,10.8873977 C25.5494131,4.20465518 20.7191567,0.739957649 12.9892144,0.739957649 L0,0.739957649 L0,38.0461558 L14.1728379,38.0461558 C21.9027802,38.0461558 26.7330366,34.3386596 26.7330366,27.3514554 C26.7524813,23.4965934 24.3364873,20.0547889 20.7191567,18.7841332 L20.7191567,18.7841332 Z" id="Shape"></path>
                </g>
            </g>
        </g>
    </g>
</svg>