<?xml version="1.0" encoding="UTF-8"?>
<svg width="323px" height="200px" viewBox="0 0 323 200" version="1.1" xmlns="http://www.w3.org/2000/svg" xmlns:xlink="http://www.w3.org/1999/xlink">
    <!-- Generator: Sketch 46.2 (44496) - http://www.bohemiancoding.com/sketch -->
    <title>Artboard 2</title>
    <desc>Created with Sketch.</desc>
    <defs></defs>
    <g id="News-black" stroke="none" stroke-width="1" fill="none" fill-rule="evenodd">
        <g id="Artboard-2" fill="#FFFFFF">
            <g id="CT_icon_YW" transform="translate(8.000000, 45.000000)">
                <path d="M68.3702512,80.2018349 L48.713804,88.7339453 L48.713804,87.8807341 C44.9244651,88.8489269 40.7244263,89.4077252 36.7490101,89.5871557 C18.2621938,89.4077252 3.58864072,79.7484979 3.41851256,68.2568807 L3.41851256,63.9908257 C9.48996097,72.8034335 21.8508346,78.7107296 36.7490101,78.4954128 C41.7877274,78.7107296 46.9447369,77.9124463 51.2776884,76.7889908 L52.9869447,72.5229358 C47.8485428,74.0540772 42.2396303,75.118455 36.7490101,75.0825688 C18.2621938,75.118455 3.58864072,65.4592275 3.41851256,53.7522935 L3.41851256,50.3394495 C9.48996097,58.4875537 21.8242519,64.3948497 36.7490101,63.9908257 C43.4624263,64.3948497 50.0283097,62.9845494 55.5508291,60.5779817 L56.4054573,56.3119266 C51.0118632,59.1527898 44.0206594,60.8025751 36.7490101,60.5779817 C18.2621938,60.8025751 3.58864072,51.1433477 3.41851256,39.2477065 L3.41851256,35.8348624 C9.48996097,44.1716738 21.8508346,50.0789699 36.7490101,50.3394495 C45.216873,50.0789699 53.2447952,47.8437769 59.8239698,44.3669725 L60.6785979,39.2477065 C54.7068341,43.6660944 45.9877662,46.5133047 36.7490101,46.9266055 C18.2621938,46.5133047 3.58864072,36.8540772 3.41851256,24.7431193 C3.58864072,13.2248927 18.2621938,3.56566523 36.7490101,3.41284403 C47.7687953,3.56566523 58.0030669,7.42403435 64.0971105,13.6513761 L64.6906022,14.6388889 L69,14.6558827 L68.3702512,13.6513761 C62.3094357,5.42832618 50.1878049,0 36.7490101,0 C16.2950871,0 0,11.255794 0,24.7431193 L0,25.5963302 L0,69.1100917 C0.717728142,82.2763949 16.6406599,93 36.7490101,93 C50.0283097,93 61.9638629,87.7845497 68.3702512,80.2018349 Z" id="Shape" fill-rule="nonzero"></path>
                <path d="M60.0860215,110 L66.9677419,80.8571429 L47.1827957,89.4285714 L59.2258065,38.8571429 L36,38.8571429 L42.0215054,14 L116,14 L109.978495,38.8571429 L85.8924731,38.8571429 L80.7311828,52.5714286 L107.397849,41.4285714 L60.0860215,110 Z M72.1290323,74.8571429 L68.688172,92 L97.0752688,49.1428571 L73.8494624,59.4285714 L84.172043,35.4285714 L107.397849,35.4285714 L111.698925,17.4285714 L44.6021505,17.4285714 L40.3010753,35.4285714 L63.5268817,35.4285714 L52.344086,83.4285714 L72.1290323,74.8571429 Z" id="Shape" fill-rule="nonzero"></path>
                <text id="COINTELEGRAPH" font-family="HKGrotesk-Bold, HK Grotesk" font-size="26" font-weight="bold" letter-spacing="0.715">
                    <tspan x="123" y="58">COINTELEGRA</tspan>
                    <tspan x="123" y="89">PH</tspan>
                </text>
            </g>
        </g>
    </g>
</svg>