<?xml version="1.0" encoding="UTF-8"?>
<svg width="323px" height="200px" viewBox="0 0 323 200" version="1.1" xmlns="http://www.w3.org/2000/svg" xmlns:xlink="http://www.w3.org/1999/xlink">
    <!-- Generator: Sketch 46.2 (44496) - http://www.bohemiancoding.com/sketch -->
    <title>Artboard 2</title>
    <desc>Created with Sketch.</desc>
    <defs></defs>
    <g id="News-black" stroke="none" stroke-width="1" fill="none" fill-rule="evenodd">
        <g id="Artboard-2" fill-rule="nonzero" fill="#FFFFFF">
            <g id="cv-logo-topbar" transform="translate(9.000000, 77.000000)">
                <path d="M38.390239,0 C36.1211976,0 34.0651868,0.936799944 32.5663914,2.45519653 L32.5663914,2.45519653 L32.5603266,2.45519653 C30.2579281,4.99860838 26.9798341,6.59116828 23.3378447,6.59116828 L23.3378447,6.59116828 C19.9081276,6.59116828 16.801368,5.17894236 14.5285361,2.89002782 L14.5285361,2.89002782 C13.0069972,1.11869527 10.7842009,0 8.30591951,0 L8.30591951,0 C3.71855925,0 0,3.8283891 0,8.55220282 L0,8.55220282 C0,13.2752359 3.71855925,17.1044056 8.30591951,17.1044056 L8.30591951,17.1044056 C10.8857884,17.1044056 13.1919775,15.892811 14.7150327,13.9918878 L14.7150327,13.9918878 C16.9696698,11.8122666 20.0013758,10.4757654 23.3378447,10.4757654 L23.3378447,10.4757654 C26.7342045,10.4757654 29.8136721,11.8614486 32.0804391,14.1105492 L32.0804391,14.1105492 C33.6034942,15.9427737 35.8649544,17.1044056 38.390239,17.1044056 L38.390239,17.1044056 C42.9760829,17.1044056 46.6954004,13.2752359 46.6954004,8.55220282 L46.6954004,8.55220282 C46.6954004,3.8283891 42.9760829,0 38.390239,0 Z M15.3207674,22.3044259 C15.1880971,27.0258976 18.7982457,30.9643608 23.3825736,31.1009776 L23.3825736,31.1009776 C25.6508568,31.1681148 27.7318854,30.2922069 29.2723772,28.819089 L29.2723772,28.819089 L29.2792003,28.8198696 C31.6505872,26.3459371 34.97341,24.8517413 38.6138833,24.9610344 L38.6138833,24.9610344 C42.0413259,25.0633018 45.1079053,26.5668658 47.3147813,28.922137 L47.3147813,28.922137 C48.7870425,30.7387482 50.977998,31.9222388 53.4547631,31.9971827 L53.4547631,31.9971827 C58.039849,32.1330188 61.8637864,28.416265 61.9964567,23.6947932 L61.9964567,23.6947932 C62.129127,18.9733215 58.5197365,15.0348584 53.9338925,14.8982418 L53.9338925,14.8982418 C51.3547817,14.8217364 49.0159937,15.9646324 47.4398704,17.8194963 L47.4398704,17.8194963 C45.1245839,19.9304189 42.0580044,21.1771433 38.7230519,21.0779987 L38.7230519,21.0779987 C35.3274501,20.976512 32.2889209,19.4987101 30.0858357,17.183253 L30.0858357,17.183253 C28.6143325,15.3065304 26.3877456,14.0777612 23.8632192,14.0028172 L23.8632192,14.0028172 C23.7821007,14.0004752 23.7002242,13.9989138 23.6191057,13.9989138 L23.6191057,13.9989138 C19.1424304,13.9989138 15.4511633,17.6672663 15.3207674,22.3044259 L15.3207674,22.3044259 Z M31.9803678,32.0081121 C29.7249725,34.1869527 26.6940244,35.5242346 23.3583139,35.5242346 L23.3583139,35.5242346 C19.9611957,35.5242346 16.8817283,34.13699 14.6149613,31.8886702 L14.6149613,31.8886702 C13.091148,30.0572263 10.8312041,28.8940329 8.30591951,28.8940329 L8.30591951,28.8940329 C3.71855925,28.8940329 0,32.7239835 0,37.447797 L0,37.447797 C0,42.1708301 3.71855925,46 8.30591951,46 L8.30591951,46 C10.5742028,46 12.6294554,45.0624194 14.1282508,43.5440228 L14.1282508,43.5440228 L14.1350739,43.5440228 C16.4367142,41.0006108 19.7155661,39.4088317 23.3583139,39.4088317 L23.3583139,39.4088317 C26.7872727,39.4088317 29.8947905,40.8210576 32.1668643,43.1091914 L32.1668643,43.1091914 C33.6891614,44.8813046 35.9119575,46 38.390239,46 L38.390239,46 C42.9760829,46 46.6954004,42.1708301 46.6954004,37.447797 L46.6954004,37.447797 C46.6954004,32.7239835 42.9760829,28.8940329 38.390239,28.8940329 L38.390239,28.8940329 C35.8088537,28.8940329 33.503423,30.1071889 31.9803678,32.0081121 L31.9803678,32.0081121 Z" id="Fill-1"></path>
                <path d="M230.53538,10.3409505 L224.595075,22.8778075 L218.606563,10.3409505 L208.675703,10.3409505 L221.771462,34.7965502 L227.419455,34.7965502 L240.467006,10.3409505 L230.53538,10.3409505 Z M247.05544,19.017028 C247.591085,16.4906261 249.733666,15.1554992 252.313946,15.1554992 C254.699097,15.1554992 256.890651,16.6809304 257.329113,19.017028 L247.05544,19.017028 Z M251.876247,9.53028421 C243.745153,9.53028421 238.048951,14.4407342 238.048951,22.592351 C238.048951,31.0301734 244.231826,35.6072166 252.509074,35.6072166 C255.381662,35.6072166 258.205276,34.9389038 260.493246,33.5558261 C262.781981,32.1742469 264.535072,30.0771537 265.216107,27.2158462 L256.696287,27.2158462 C255.722179,28.8371788 254.35858,29.4575409 252.460099,29.4575409 C248.809295,29.4575409 246.909286,27.5500025 246.909286,24.0226302 L265.556624,24.0226302 L265.556624,23.1168117 C265.556624,14.7741414 260.542219,9.53028421 251.876247,9.53028421 L251.876247,9.53028421 Z M196.180633,28.0744632 C192.578036,28.0744632 190.484429,25.6904151 190.484429,22.592351 C190.484429,19.5894393 192.578036,17.0622882 196.180633,17.0622882 C199.783229,17.0622882 201.876836,19.5894393 201.876836,22.592351 C201.876836,25.6904151 199.783229,28.0744632 196.180633,28.0744632 L196.180633,28.0744632 Z M196.180633,9.53028421 C188.14672,9.53028421 181.135892,14.25043 181.135892,22.592351 C181.135892,30.9342722 188.195695,35.6072166 196.180633,35.6072166 C204.213779,35.6072166 211.225374,30.8870708 211.225374,22.592351 C211.225374,14.25043 204.213779,9.53028421 196.180633,9.53028421 L196.180633,9.53028421 Z M280.299872,19.2552829 C279.082427,19.017028 276.307786,18.7780237 276.307786,17.1102389 C276.307786,15.8710133 278.060111,15.4417048 279.082427,15.4417048 C280.592182,15.4417048 282.490661,15.918964 283.854261,16.6329797 L286.82403,11.1036661 C284.24375,9.9595927 281.420137,9.53028421 278.596521,9.53028421 C273.143653,9.53028421 267.59284,12.1997889 267.59284,18.2063617 C267.59284,22.592351 270.368246,23.927478 273.143653,24.642243 C275.918296,25.3570079 278.693702,25.4529093 278.693702,27.3596982 C278.693702,28.694076 277.037793,29.2177874 275.918296,29.2177874 C273.726741,29.2177874 270.708763,27.979311 268.907465,26.7400854 L265.693596,32.7938597 C268.713104,34.6054967 272.218518,35.6072166 275.772141,35.6072166 C281.565526,35.6072166 287.554803,32.9369626 287.554803,26.5010812 C287.554803,21.9727382 284.438114,20.0652 280.299872,19.2552829 L280.299872,19.2552829 Z M299.986361,10.3409505 L299.986361,3 L291.12526,3 L291.12526,10.3409505 L288.253437,10.3409505 L288.253437,17.4915967 L291.12526,17.4915967 L291.12526,34.7965502 L299.986361,34.7965502 L299.986361,17.4915967 L305,17.4915967 L305,10.3409505 L299.986361,10.3409505 Z M181.523087,10.3409505 L176.508683,10.3409505 L176.508683,3 L167.647582,3 L167.647582,10.3409505 L164.774994,10.3409505 L164.774994,17.4915967 L167.647582,17.4915967 L167.647582,34.7965502 L176.508683,34.7965502 L176.508683,17.4915967 L181.523087,17.4915967 L181.523087,10.3409505 Z M62,15.2259268 C62.217319,15.4169803 62.4315771,15.6117799 62.6335918,15.8215642 C64.5917573,17.8527253 65.6247872,20.5087438 65.5421448,23.3003729 C65.4579719,26.1414511 64.2489445,28.6738467 62.3366913,30.4997191 C64.8274412,33.653226 68.8218233,35.6072166 73.2669125,35.6072166 C75.4094931,35.6072166 77.5520735,35.1764096 79.4987609,34.2241389 L79.4987609,26.882439 C78.3310545,27.9313604 76.6269379,28.5517224 75.0689758,28.5517224 C71.4174064,28.5517224 68.8371274,26.0717729 68.8371274,22.5444003 C68.8371274,19.1601308 71.5145877,16.5857783 74.9235863,16.5857783 C76.6269379,16.5857783 78.1848999,17.3492431 79.4987609,18.3015138 L79.4987609,10.9605633 C77.7464361,10.0075434 75.7018022,9.53028421 73.6571683,9.53028421 C68.7307635,9.53028421 64.4808022,11.6790744 62,15.2259268 L62,15.2259268 Z M118.257276,22.8778075 L111.586964,10.3409505 L101.907092,10.3409505 L101.907092,10.0075434 L100.202975,10.0075434 C96.7465337,10.0075434 93.8249723,11.3419211 92.1208555,14.3455821 L92.0236742,14.3455821 L92.0236742,10.3409505 L83.1625735,10.3409505 L83.1625735,34.7965502 L92.0236742,34.7965502 L92.0236742,24.9284486 C92.0236742,20.7335128 93.2403539,17.5395474 98.1575761,17.5395474 C99.5211754,17.5395474 100.689647,17.6826502 101.907092,18.3494645 L101.907092,11.2924719 L113.437236,31.459482 L104.917417,47 L114.849043,47 L134.85998,10.3409505 L124.781434,10.3409505 L118.257276,22.8778075 Z M149.520586,28.0744632 C145.91799,28.0744632 143.824383,25.6904151 143.824383,22.592351 C143.824383,19.5894393 145.91799,17.0622882 149.520586,17.0622882 C153.123182,17.0622882 155.21679,19.5894393 155.21679,22.592351 C155.21679,25.6904151 153.123182,28.0744632 149.520586,28.0744632 L149.520586,28.0744632 Z M151.760348,9.53028421 C148.838787,9.53028421 145.820809,10.6743576 144.213874,13.1056073 L144.115927,13.1056073 L144.115927,10.3409505 L135.255592,10.3409505 L135.255592,47 L144.115927,47 L144.115927,32.4597034 C146.015937,34.6054967 148.984941,35.6072166 151.85753,35.6072166 C159.258615,35.6072166 164.370199,29.6957959 164.370199,22.6403017 C164.370199,15.6320091 159.209641,9.53028421 151.760348,9.53028421 L151.760348,9.53028421 Z" id="Fill-4"></path>
            </g>
        </g>
    </g>
</svg>