<?xml version="1.0" encoding="UTF-8"?>
<svg width="323px" height="200px" viewBox="0 0 323 200" version="1.1" xmlns="http://www.w3.org/2000/svg" xmlns:xlink="http://www.w3.org/1999/xlink">
    <!-- Generator: Sketch 46.2 (44496) - http://www.bohemiancoding.com/sketch -->
    <title>Artboard 2</title>
    <desc>Created with Sketch.</desc>
    <defs></defs>
    <g id="News-black" stroke="none" stroke-width="1" fill="none" fill-rule="evenodd">
        <g id="Artboard-2" fill-rule="nonzero" fill="#FFFFFF">
            <g id="Group" transform="translate(8.000000, 54.000000)">
                <path d="M0,92 L92,92 L92,0 L0,0 L0,92 Z M3.06666667,3.06666667 L88.7142857,3.06666667 L88.7142857,88.7142857 L3.06666667,88.7142857 L3.06666667,3.06666667 Z" id="Shape"></path>
                <rect id="Rectangle-path" x="15" y="32" width="3" height="28"></rect>
                <path d="M37.7321429,56.6929134 C31.4821429,56.6929134 26.3482143,51.6220472 26.3482143,45.6692913 C26.3482143,39.496063 31.4821429,34.6456693 37.7321429,34.6456693 C40.8571429,34.6456693 43.9821429,35.9685039 45.9910714,38.1732283 L48,35.9685039 C45.3214286,33.5433071 41.5267857,32 37.7321429,32 C29.4732143,32 23,38.1732283 23,45.8897638 C23,53.8267717 29.4732143,60 37.5089286,60 C41.3035714,60 45.0982143,58.4566929 48,55.8110236 L45.9910714,53.6062992 C43.7589286,55.3700787 40.8571429,56.6929134 37.7321429,56.6929134 Z" id="Shape"></path>
                <path d="M61,32 C53.1515152,32 47,38.1732283 47,45.8897638 C47,53.6062992 53.1515152,60 61,60 C68.8484848,60 75,53.8267717 75,45.8897638 C75,37.9527559 68.8484848,32 61,32 Z M61,56.9133858 C55.0606061,56.9133858 50.1818182,51.8425197 50.1818182,45.8897638 C50.1818182,39.7165354 55.0606061,34.8661417 61,34.8661417 C66.9393939,34.8661417 71.8181818,39.7165354 71.8181818,45.8897638 C72.030303,52.0629921 66.9393939,56.9133858 61,56.9133858 Z" id="Shape"></path>
                <path d="M128,33.4333333 C123.111111,33.4333333 119.333333,35.3833333 116.666667,38.6333333 L116.666667,20 L104,20 L104,71.7833333 L116.666667,71.7833333 L116.666667,66.8 C119.333333,70.2666667 123.333333,72 128.222222,72 C138.888889,72 146,64.4166667 146,52.9333333 C146,41.2333333 138.888889,33.4333333 128,33.4333333 Z M124.888889,62.0333333 C120,62.0333333 116.666667,58.35 116.666667,52.7166667 C116.666667,47.0833333 120,43.4 124.888889,43.4 C130,43.4 133.333333,47.3 133.333333,52.7166667 C133.333333,58.35 129.777778,62.0333333 124.888889,62.0333333 Z" id="Shape"></path>
                <path d="M167.408901,33 C155.298125,33 147,41.0898876 147,53.2247191 C147,65.1348315 154.849577,73 167.633174,73 C174.809931,73 180.641045,70.5280899 184.677971,66.0337079 L177.949762,59.2921348 C175.258478,61.988764 172.118647,63.3370787 168.754543,63.3370787 C164.26907,63.3370787 161.129239,60.8651685 159.783597,56.3707865 L186.920707,56.3707865 C187.817802,42.2134831 181.089593,33 167.408901,33 Z M159.559324,49.6292135 C160.456418,45.1348315 163.147702,42.2134831 167.408901,42.2134831 C171.6701,42.2134831 174.585657,45.3595506 174.585657,49.6292135 L159.559324,49.6292135 Z" id="Shape"></path>
                <path d="M214.842697,33 C209.224719,33 204.730337,35.4858757 201.808989,40.0056497 L201.808989,33.6779661 L189,33.6779661 L189,73 L201.808989,73 L201.808989,52.2090395 C202.258427,47.6892655 205.179775,44.7514124 209.449438,44.7514124 C213.494382,44.7514124 216.191011,47.4632768 216.191011,51.9830508 L216.191011,73 L229,73 L229,48.1412429 C229,38.8757062 223.157303,33 214.842697,33 Z" id="Shape"></path>
                <path d="M252.589286,62.4382022 C247.714286,62.4382022 244.464286,58.6179775 244.464286,53 C244.464286,47.3820225 247.714286,43.5617978 252.589286,43.5617978 C256.071429,43.5617978 258.625,45.1348315 260.482143,47.6067416 L270,42.2134831 C266.517857,36.3707865 260.017857,33 251.892857,33 C239.357143,33 231,41.0898876 231,53.2247191 C231,65.1348315 239.357143,73 251.660714,73 C260.25,73 266.75,69.6292135 270,63.5617978 L260.25,58.1685393 C258.857143,61.0898876 256.071429,62.4382022 252.589286,62.4382022 Z" id="Shape"></path>
                <path d="M293.842697,33.4895397 C288.224719,33.4895397 283.730337,35.8828452 280.808989,40.2343096 L280.808989,20 L268,20 L268,72 L280.808989,72 L280.808989,53.2887029 C280.808989,48.2845188 283.730337,44.8033473 288.449438,44.8033473 C292.494382,44.8033473 295.191011,47.4142259 295.191011,51.7656904 L295.191011,72 L308,72 L308,48.0669456 C308,39.1464435 302.382022,33.4895397 293.842697,33.4895397 Z" id="Shape"></path>
            </g>
        </g>
    </g>
</svg>