<?xml version="1.0" encoding="UTF-8"?>
<svg width="40px" height="40px" viewBox="0 0 40 40" version="1.1" xmlns="http://www.w3.org/2000/svg" xmlns:xlink="http://www.w3.org/1999/xlink">
    <!-- Generator: Sketch 47.1 (45422) - http://www.bohemiancoding.com/sketch -->
    <title>logo_white</title>
    <desc>Created with Sketch.</desc>
    <defs></defs>
    <g id="Symbols" stroke="none" stroke-width="1" fill="none" fill-rule="evenodd">
        <g id="logo_white" fill-rule="nonzero" fill="#375CF6">
            <g id="Asset-1" transform="translate(1.000000, 0.000000)">
                <path d="M22.8231893,28.0695652 C22.791293,27.9910799 22.8175667,27.9009636 22.8866452,27.8519179 C22.9557236,27.8028722 23.0494637,27.8077788 23.1130444,27.8637681 C25.3072473,29.7971014 28.1623199,30.2144928 30.3594214,29.342029 C32.7305261,28.4724505 34.3068342,26.2153854 34.3068342,23.6898551 C34.3068342,21.1643247 32.7305261,18.9072596 30.3594214,18.0376812 C29.0949563,17.5614531 27.7166775,17.4756262 26.4028996,17.7913043 C25.1756316,18.0916208 24.0409316,18.6888313 23.0985516,19.5304348 C23.0347196,19.5883048 22.9391227,19.5936843 22.8692012,19.5433409 C22.7992798,19.4929974 22.7740605,19.4006303 22.8086965,19.3217391 C23.4161178,17.9853919 24.4306999,16.8754392 25.7072473,16.1507246 C27.3379307,15.2334321 29.2414483,14.9252534 31.078262,15.2811594 C32.9951975,15.6603225 34.7201445,16.6954957 35.9565231,18.2086957 C38.5592302,21.3895438 38.5592302,25.9640794 35.9565231,29.1449275 C34.7204186,30.6564769 32.9966432,31.6905371 31.0811606,32.0695652 C29.2452967,32.4260433 27.3424897,32.1178132 25.7130445,31.2 C24.4495852,30.480007 23.440068,29.3864478 22.8231893,28.0695652 L22.8231893,28.0695652 Z" id="Shape"></path>
                <path d="M15.4000006,19.3246377 C15.4346366,19.4035288 15.4094173,19.495896 15.3394959,19.5462394 C15.2695744,19.5965829 15.1739775,19.5912034 15.1101455,19.5333333 C14.1711007,18.6869362 13.0351286,18.0890562 11.8057975,17.7942029 C10.4910705,17.4782886 9.111798,17.5641145 7.84637711,18.0405797 C5.47527246,18.9101582 3.89896433,21.1672233 3.89896433,23.6927536 C3.89896433,26.218284 5.47527246,28.4753491 7.84637711,29.3449275 C10.0492757,30.2144928 12.9014498,29.8 15.0927542,27.8695652 C15.15443,27.8053915 15.2537889,27.7960322 15.3263633,27.8475601 C15.3989378,27.899088 15.4228604,27.9959771 15.3826093,28.0753623 C14.7726618,29.4063376 13.7583324,30.5109422 12.4840584,31.2318841 C10.8535444,32.1496607 8.94984953,32.4578682 7.11304375,32.1014493 C5.19577819,31.71646 3.47273317,30.6750479 2.24057979,29.1565217 C-0.362127338,25.9756736 -0.362127338,21.401138 2.24057979,18.2202899 C3.47741747,16.7081681 5.20230943,15.6740529 7.11884085,15.2956522 C8.95471275,14.9396876 10.8573421,15.2478889 12.486957,16.1652174 C13.7633819,16.8891908 14.7818128,17.9937576 15.4000006,19.3246377 Z" id="Shape"></path>
                <path d="M11.034783,39.9536232 C10.9222824,39.9458969 10.8289796,39.8636079 10.8072563,39.7529545 C10.7855329,39.6423011 10.8407999,39.530845 10.9420294,39.4811594 C14.739131,37.6057971 18.8956529,31.4347826 18.8956529,25.4434783 C18.8956529,24.9594203 19.3159428,24.9594203 19.3159428,25.4434783 C19.3159428,31.4376812 23.4666676,37.6173913 27.2695662,39.4811594 C27.3707958,39.530845 27.4260627,39.6423011 27.4043394,39.7529545 C27.382616,39.8636079 27.2893132,39.9458969 27.1768126,39.9536232 L11.034783,39.9536232 Z" id="Shape"></path>
                <path d="M27.7855083,11.3275362 C23.2813081,13.0984443 20.0475902,17.1168952 19.2811602,21.8956522 C19.2845695,21.9196865 19.2845695,21.9440817 19.2811602,21.9681159 C19.2556209,22.033895 19.1923028,22.0772343 19.1217399,22.0772343 C19.0511769,22.0772343 18.9878588,22.033895 18.9623196,21.9681159 C18.9589102,21.9440817 18.9589102,21.9196865 18.9623196,21.8956522 C18.1920614,17.1112973 14.9483417,13.0913783 10.434783,11.3275362 C10.3668046,11.3001209 10.3222886,11.234168 10.3222886,11.1608696 C10.3222886,11.0875711 10.3668046,11.0216182 10.434783,10.9942029 C14.9291982,9.21938163 18.1577711,5.21009325 18.9333341,0.44057971 C18.9333341,0.344530188 19.0111976,0.266666667 19.1072471,0.266666667 C19.2032966,0.266666667 19.2811602,0.344530188 19.2811602,0.44057971 C20.060016,5.2104468 23.2902662,9.21908367 27.7855083,10.9942029 C27.8534867,11.0216182 27.8980027,11.0875711 27.8980027,11.1608696 C27.8980027,11.234168 27.8534867,11.3001209 27.7855083,11.3275362 Z" id="Shape"></path>
            </g>
        </g>
    </g>
</svg>