<?xml version="1.0" encoding="UTF-8"?>
<svg width="323px" height="200px" viewBox="0 0 323 200" version="1.1" xmlns="http://www.w3.org/2000/svg" xmlns:xlink="http://www.w3.org/1999/xlink">
    <!-- Generator: Sketch 46.2 (44496) - http://www.bohemiancoding.com/sketch -->
    <title>Artboard 2</title>
    <desc>Created with Sketch.</desc>
    <defs></defs>
    <g id="News-black" stroke="none" stroke-width="1" fill="none" fill-rule="evenodd">
        <g id="Artboard-2" fill-rule="nonzero" fill="#FFFFFF">
            <g id="logo1" transform="translate(9.000000, 70.000000)">
                <path d="M287.318841,60 L287.318841,37.4803744 C287.318841,30.168225 286.978478,25.2067298 281.932717,25.2067298 C279.368949,25.2067298 277.207428,26.4852344 275.605072,28.5981316 C276.084674,30.6302811 276.268116,33.0123371 276.268116,35.6119632 C276.268116,40.6519631 276.347681,47.0736452 276.268116,53.4953273 C276.268116,54.5540188 276.166449,54.7962618 276.807391,55.4467291 L280.688406,60 L263.007246,60 L263.007246,37.4803744 C263.007246,30.0852343 261.98837,25.2067298 257.022174,25.2067298 C254.458406,25.2067298 253.397536,26.6714026 251.956522,28.7842998 L251.956522,53.4953273 C251.956522,54.5540188 251.899058,54.7962618 252.619565,55.4467291 L256.376812,60 L238.695652,60 L238.695652,25.3682251 C238.695652,24.3140195 238.540942,24.0695335 237.9,23.3383186 L234.275362,19.6261692 L251.956522,19.6261692 L251.956522,27.7278512 C253.958913,22.0373841 257.342645,18.5046739 263.82942,18.5046739 C269.757029,18.5046739 273.761812,21.7928981 275.443732,28.0530849 C277.286993,22.6878513 282.091848,18.5046739 288.821739,18.5046739 C296.751739,18.5046739 300.57971,24.3947672 300.57971,35.6119632 C300.57971,40.9771967 300.659275,47.0736452 300.57971,53.4953273 C300.57971,54.5540188 300.588551,54.9577571 301.132246,55.4467291 L305,60 L287.318841,60 Z M227.644928,53.1700936 C227.644928,54.2287852 227.315616,54.5540188 228.038333,55.2022431 L232.065217,60 L214.384058,60 L214.384058,51.0280376 C212.381667,56.5570094 207.85087,60 201.925471,60 C193.995471,60 190.072464,54.1457945 190.072464,43.0900938 C190.072464,37.7271033 189.992899,31.8751408 190.072464,25.2897204 C190.072464,24.2332719 189.829348,23.9887859 189.188406,23.3383186 L185.652174,19.6261692 L203.333333,19.6261692 L203.333333,41.2216827 C203.333333,48.4553274 203.927862,53.3338319 208.412246,53.3338319 C210.976014,53.3338319 213.022609,51.7076637 214.384058,49.6777572 L214.384058,25.3682251 C214.384058,24.3117765 214.098949,24.0672906 213.458007,23.3360756 L209.963768,19.6261692 L227.644928,19.6261692 L227.644928,53.1700936 Z M172.395725,1.39014873e-06 C174.300361,1.02369705e-06 176.126923,0.768165969 177.47329,2.13538266 C178.819657,3.50259936 179.575448,5.35677967 179.574275,7.28972085 C179.574275,10.2385453 177.823721,12.8969249 175.139086,14.0249716 C172.454451,15.1530183 169.364581,14.5285182 167.310614,12.4427428 C165.256647,10.3569673 164.643194,7.22079354 165.756374,4.4969562 C166.869554,1.77311886 169.490082,-0.00181327102 172.395725,1.39014873e-06 Z M165.76087,60 L165.76087,25.3682251 C165.76087,24.3140195 166.132174,24.0695335 165.491232,23.3383186 L161.34058,19.6261692 L179.021739,19.6261692 L179.021739,53.4953273 C179.021739,54.5540188 178.999638,55.0160749 179.552174,55.5140188 L183.442029,60 L165.76087,60 Z M141.449275,25.6957017 C140.328732,24.2332719 138.31529,23.1768233 136.153768,23.1768233 C131.828514,23.1768233 127.662391,27.1581316 127.662391,38.9450472 C127.662391,50.0029909 131.267138,53.9035515 135.751522,53.9035515 C137.756123,53.9035515 139.84692,52.9256076 141.449275,50.8127105 L141.449275,25.6957017 Z M154.710145,53.2530843 C154.710145,54.3072899 154.652681,54.5540188 155.373188,55.2044861 L159.130435,60 L141.449275,60 L141.449275,51.7076637 C139.046848,57.3173832 134.710543,60 129.585217,60 C120.452899,60 113.822464,52.6833647 113.822464,39.3532715 C113.822464,26.832898 121.014275,18.462057 131.026232,18.462057 C136.233333,18.462057 139.68779,20.9809355 141.449275,24.9644868 L141.449275,8.1375713 C141.449275,7.08112272 141.279094,6.75364609 140.558587,6.10542181 L137.028986,2.36635648 L154.710145,0.0897210142 L154.710145,53.2530843 Z M97.0253623,35.3271034 C97.1071377,34.2706548 97.1071377,33.8242997 97.1071377,33.499066 C97.1071377,22.8515896 95.0362319,21.3084121 91.7210145,21.3084121 C88.4057971,21.3084121 85.4132609,23.5401878 85.2519203,35.3271034 L97.0275725,35.3271034 L97.0253623,35.3271034 Z M85.2519203,37.570094 C85.2519203,48.1368227 90.538587,52.4411217 96.7071014,52.4411217 C101.511957,52.4411217 106.239457,50.3259815 108.88279,44.960748 L109.04192,44.960748 C106.959964,55.2022431 100.709674,60 91.3386594,60 C81.2471377,60 71.7147826,53.8205609 71.7147826,39.5147668 C71.7147826,24.4755148 81.1675725,18.462057 91.820471,18.462057 C100.311848,18.462057 109.362391,22.524113 109.362391,35.6119632 C109.362391,35.8564492 109.362391,36.5943931 109.282826,37.570094 L85.2519203,37.570094 Z M69.6195652,60 L43.0978261,60 L48.3800725,54.0650469 C48.5657246,53.8766357 48.6231884,53.1700936 48.6231884,52.113645 L48.6231884,15.140188 L31.2381884,60 L12.3348188,18.2175711 C11.8552174,17.1588795 11.4507609,15.7794403 11.0507246,14.6400011 L11.0507246,45.68972 C11.0507246,46.9906545 10.9733696,47.1543928 11.8552174,48.3723367 L19.8913043,60 L0,60 L8.04492754,48.3745797 C8.92677536,47.1566358 8.84057971,46.9928975 8.84057971,45.6919629 L8.84057971,13.5028048 C8.84057971,12.1188796 9.05054348,11.9551413 8.40960145,11.1454217 L2.21014493,1.68224434 L20.9853261,1.68224434 L37.240942,38.2429912 L51.3637681,1.68224434 L69.6195652,1.68224434 L64.7572464,7.8504685 C64.0367391,8.58168343 64.0942029,9.19401987 64.0942029,10.3312161 L64.0942029,52.115888 C64.0942029,53.1700936 64.1052536,53.798131 64.3992029,54.0672899 L69.6195652,60 Z" id="Shape"></path>
            </g>
        </g>
    </g>
</svg>