<?xml version="1.0" encoding="UTF-8"?>
<svg width="323px" height="200px" viewBox="0 0 323 200" version="1.1" xmlns="http://www.w3.org/2000/svg" xmlns:xlink="http://www.w3.org/1999/xlink">
    <!-- Generator: Sketch 46.2 (44496) - http://www.bohemiancoding.com/sketch -->
    <title>Artboard 2</title>
    <desc>Created with Sketch.</desc>
    <defs></defs>
    <g id="News-black" stroke="none" stroke-width="1" fill="none" fill-rule="evenodd">
        <g id="Artboard-2" fill="#FFFFFF">
            <g id="logo" transform="translate(10.000000, 61.000000)">
                <path d="M100,50.3383896 C100.913734,56.3593933 105.974417,60 113.284293,60 C120.313019,60 125.44399,56.21937 125.44399,50.058343 C125.44399,45.5075847 122.773074,42.4970827 117.431242,41.2368729 L110.824239,39.6966162 C108.575046,39.1365228 107.591025,38.226371 107.591025,36.8261378 C107.591025,34.3757293 110.121366,33.2555425 112.58142,33.2555425 C115.814635,33.2555425 117.642103,34.6557759 118.274689,36.6861143 L125.162841,36.6861143 C124.108532,31.0151691 119.961583,27.5145859 112.651708,27.5145859 C105.833843,27.5145859 100.843447,31.6452741 100.843447,37.2462077 C100.843447,42.3570594 104.146949,44.7374561 108.575046,45.7876313 L115.041475,47.3278879 C117.642103,47.957993 118.696412,48.8681448 118.696412,50.5484248 C118.696412,52.9988331 116.587795,54.2590432 113.35458,54.2590432 C110.261941,54.2590432 107.942461,52.9288214 107.169301,50.3383896 L100,50.3383896 Z M133.948749,50.898483 C133.948749,57.0595099 137.884836,60 143.43753,60 C145.616435,60 147.514191,59.5799299 148.709074,58.8798132 L148.709074,52.5087516 C147.725053,53.2088683 146.108446,53.7689614 144.7027,53.7689614 C142.383221,53.7689614 140.977475,52.6487749 140.977475,50.1283547 L140.977475,34.025671 L148.006202,34.025671 L148.006202,28.2147026 L140.977475,28.2147026 L140.977475,19.8833139 L133.948749,19.8833139 L133.948749,23.4189032 C133.948749,23.7835473 133.948749,24.2202834 133.948749,24.7291114 C133.948749,27.2476662 131.866489,28.2147026 130.438779,28.2147026 C129.486972,28.2147026 129.016926,28.2147026 129.02864,28.2147026 L129.02864,34.025671 L133.948749,34.025671 L133.948749,50.898483 Z M289.239675,50.898483 C289.239675,57.0595099 293.175761,60 298.728455,60 C300.907361,60 302.805117,59.5799299 304,58.8798132 L304,52.5087516 C303.01598,53.2088683 301.399372,53.7689614 299.993626,53.7689614 C297.674146,53.7689614 296.268402,52.6487749 296.268402,50.1283547 L296.268402,34.025671 L303.297128,34.025671 L303.297128,28.2147026 L296.268402,28.2147026 L296.268402,19.8833139 L289.239675,19.8833139 L289.239675,23.4189032 C289.239675,23.7835473 289.239675,24.2202834 289.239675,24.7291114 C289.239675,27.2476662 287.157416,28.2147026 285.729704,28.2147026 C284.777897,28.2147026 284.307851,28.2147026 284.319566,28.2147026 L284.319566,34.025671 L289.239675,34.025671 L289.239675,50.898483 Z M174.697791,49.6382729 L181.164219,49.6382729 C180.10991,55.7992999 175.541238,60 168.020501,60 C159.30488,60 153.260175,53.4189032 153.260175,43.8273045 C153.260175,34.5157528 159.375167,27.5145859 167.879926,27.5145859 C176.665834,27.5145859 181.445368,33.7456242 181.445368,42.8471412 L181.445368,45.3675612 L160.148327,45.3675612 C160.359189,50.8284714 163.522116,54.1190199 168.020501,54.1190199 C171.394289,54.1190199 173.924631,52.6487749 174.697791,49.6382729 Z M167.950213,33.395566 C164.084414,33.395566 161.202636,35.7759626 160.359189,40.2567094 L174.486929,40.2567094 C174.416642,36.4760793 172.237737,33.395566 167.950213,33.395566 Z M207.170507,49.6382729 L213.636935,49.6382729 C212.582626,55.7992999 208.013955,60 200.493217,60 C191.777596,60 185.732891,53.4189032 185.732891,43.8273045 C185.732891,34.5157528 191.847883,27.5145859 200.352642,27.5145859 C209.138549,27.5145859 213.918085,33.7456242 213.918085,42.8471412 L213.918085,45.3675612 L192.621043,45.3675612 C192.831905,50.8284714 195.994832,54.1190199 200.493217,54.1190199 C203.867005,54.1190199 206.397348,52.6487749 207.170507,49.6382729 Z M200.42293,33.395566 C196.55713,33.395566 193.675353,35.7759626 192.831905,40.2567094 L206.959646,40.2567094 C206.889357,36.4760793 204.710453,33.395566 200.42293,33.395566 Z M243.219087,31.6452741 C241.602482,29.2648775 238.509841,27.5145859 234.995478,27.5145859 C231.481115,27.5145859 228.669624,28.8448074 227.193593,30.8051342 L227.193593,28.2147026 L220.164864,28.2147026 L220.164864,59.2998833 L227.193593,59.2998833 L227.193593,38.4364061 C227.826178,35.3558928 230.215944,33.8156359 232.746285,33.8156359 C236.190361,33.8156359 237.877256,36.336056 237.877256,40.1866977 L237.877256,59.2998833 L244.905982,59.2998833 L244.905982,38.4364061 C245.538567,35.3558928 247.928334,33.8156359 250.458677,33.8156359 C253.902753,33.8156359 255.589647,36.336056 255.589647,40.1866977 L255.589647,59.2998833 L262.618373,59.2998833 L262.618373,39.0665111 C262.618373,31.9953326 258.893147,27.5145859 252.497006,27.5145859 C248.279771,27.5145859 245.397993,29.1248542 243.219087,31.6452741 Z M277.914639,28.1271878 L270.885913,28.1271878 L270.885913,59.2123687 L277.914639,59.2123687 L277.914639,28.1271878 Z M278.79323,19.3757293 C278.79323,16.9367982 276.738462,15 274.400276,15 C272.062091,15 270.007322,16.9367982 270.007322,19.3757293 C270.007322,21.8146604 272.062091,23.7514585 274.400276,23.7514585 C276.738462,23.7514585 278.79323,21.8146604 278.79323,19.3757293 Z" id="Shape"></path>
                <path d="M66.1007925,23.5504329 C62.9181935,20.302334 59.2138573,17.9256762 55.2747391,16.3940523 C57.5703842,9.50174483 65.7094894,6.99305052 65.7094894,6.99305052 C65.7094894,6.99305052 46.7182438,-3.06813401 25.7443957,0.945776875 C18.7531129,2.08129114 12.0487858,6.46490436 7.14445315,12.248105 C-3.49899216,24.7915766 -2.09030088,43.6728022 10.3009651,54.446984 C12.2053071,56.1106445 16.4574678,58.6985605 16.5357284,58.8305971 C13.7444328,66.0661996 4.82272121,68.0467478 4.82272121,68.0467478 C4.82272121,68.0467478 16.6139891,75.5728308 32.4487227,77.5269716 C36.6487097,78.0551177 41.1095656,78.1871543 45.7269425,77.6854155 C53.0573547,77.0780474 60.3616799,73.1169511 65.9181843,67.545009 C77.9442341,55.4504618 78.0485816,35.7506095 66.1007925,23.5504329 Z M60.6747222,62.7388789 C56.1877796,67.2281213 49.4834526,70.0801107 44.3182513,70.4762203 C40.6660886,70.8459225 36.7530571,70.8987371 32.9965471,70.4234055 C27.4661295,69.7368156 23.4748375,68.1787843 19.561806,66.6735678 C21.5444085,64.719427 23.5270111,62.0258814 24.3357042,59.7020383 C24.8574419,58.3288583 24.805268,56.7972344 24.1791831,55.4504618 C19.9791961,46.6304207 21.8052774,36.0674972 28.7182996,29.201597 C33.7269796,24.2106156 40.6139148,21.8603653 47.6051977,22.7318065 C52.7443121,23.3655818 57.4138629,25.6630176 61.0660255,29.3864481 C69.9355633,38.4705623 69.6225207,53.8396159 60.6747222,62.7388789 Z" id="Shape"></path>
            </g>
        </g>
    </g>
</svg>