<?xml version="1.0" encoding="UTF-8"?>
<svg width="48px" height="48px" viewBox="0 0 48 48" version="1.1" xmlns="http://www.w3.org/2000/svg" xmlns:xlink="http://www.w3.org/1999/xlink">
    <!-- Generator: Sketch 47.1 (45422) - http://www.bohemiancoding.com/sketch -->
    <title>layers</title>
    <desc>Created with Sketch.</desc>
    <defs></defs>
    <g id="Cryptonia---Landing" stroke="none" stroke-width="1" fill="none" fill-rule="evenodd">
        <g id="Baza_Foundation/Homepage" transform="translate(-470.000000, -1806.000000)" fill="#304FFE">
            <g id="1" transform="translate(0.000000, 1780.000000)">
                <g id="Group-27" transform="translate(444.000000, 0.000000)">
                    <path d="M27.03125,40.15625 C26.7812487,40.0312494 26.5859382,39.8437513 26.4453125,39.59375 C26.3046868,39.3437488 26.234375,39.0781264 26.234375,38.796875 C26.234375,38.5156236 26.3124992,38.2578137 26.46875,38.0234375 C26.6250008,37.7890613 26.8281237,37.6093756 27.078125,37.484375 L49.578125,26.1875 C49.7968761,26.0624994 50.0234363,26 50.2578125,26 C50.4921887,26 50.7187489,26.0624994 50.9375,26.1875 L73.203125,37.484375 C73.4531262,37.6093756 73.6484368,37.7890613 73.7890625,38.0234375 C73.9296882,38.2578137 74,38.5156236 74,38.796875 C74,39.0781264 73.9296882,39.3437488 73.7890625,39.59375 C73.6484368,39.8437513 73.4687511,40.0312494 73.25,40.15625 L50.703125,52.296875 C50.6093745,52.3593753 50.5000006,52.3984374 50.375,52.4140625 C50.2499994,52.4296876 50.1250006,52.4375 50,52.4375 C49.8749994,52.4375 49.757813,52.4218752 49.6484375,52.390625 C49.539062,52.3593748 49.4218756,52.3281252 49.296875,52.296875 L27.03125,40.15625 Z M50.234375,29.1875 L30.96875,38.890625 L50,49.25 L69.265625,38.890625 L50.234375,29.1875 Z M72.921875,48.5 C73.1718762,48.6250006 73.3749992,48.8124988 73.53125,49.0625 C73.6875008,49.3125012 73.765625,49.5624988 73.765625,49.8125 C73.765625,50.0937514 73.6953132,50.3593738 73.5546875,50.609375 C73.4140618,50.8593762 73.2187512,51.0468744 72.96875,51.171875 L50.46875,63.3125 C50.3437494,63.3750003 50.226563,63.4218748 50.1171875,63.453125 C50.007812,63.4843752 49.8906256,63.5 49.765625,63.5 C49.6406244,63.5 49.5156256,63.4843752 49.390625,63.453125 C49.2656244,63.4218748 49.1406256,63.3750003 49.015625,63.3125 L26.75,51.171875 C26.5312489,51.0468744 26.3515632,50.8593762 26.2109375,50.609375 C26.0703118,50.3593738 26,50.0937514 26,49.8125 C26,49.5312486 26.0703118,49.2734387 26.2109375,49.0390625 C26.3515632,48.8046863 26.5468737,48.6250006 26.796875,48.5 L31.53125,46.15625 L34.71875,47.890625 L30.734375,49.90625 L49.765625,60.265625 L69.03125,49.90625 L65.28125,47.984375 L68.46875,46.25 L72.921875,48.5 Z M72.921875,59 C73.1718762,59.1250006 73.3749992,59.3124988 73.53125,59.5625 C73.6875008,59.8125012 73.765625,60.0624988 73.765625,60.3125 C73.765625,60.5937514 73.6953132,60.8593738 73.5546875,61.109375 C73.4140618,61.3593762 73.2187512,61.5468744 72.96875,61.671875 L50.46875,73.8125 C50.3437494,73.8750003 50.226563,73.9218748 50.1171875,73.953125 C50.007812,73.9843752 49.8906256,74 49.765625,74 C49.6406244,74 49.5156256,73.9843752 49.390625,73.953125 C49.2656244,73.9218748 49.1406256,73.8750003 49.015625,73.8125 L26.75,61.671875 C26.5312489,61.5468744 26.3515632,61.3593762 26.2109375,61.109375 C26.0703118,60.8593738 26,60.5937514 26,60.3125 C26,60.0312486 26.0703118,59.7734387 26.2109375,59.5390625 C26.3515632,59.3046863 26.5468737,59.1250006 26.796875,59 L31.25,56.984375 L34.4375,58.71875 L30.734375,60.40625 L49.765625,70.765625 L69.03125,60.40625 L65.515625,58.671875 L68.703125,56.9375 L72.921875,59 Z" id="layers"></path>
                </g>
            </g>
        </g>
    </g>
</svg>