<?xml version="1.0" encoding="UTF-8"?>
<svg width="48px" height="50px" viewBox="0 0 48 50" version="1.1" xmlns="http://www.w3.org/2000/svg" xmlns:xlink="http://www.w3.org/1999/xlink">
    <!-- Generator: Sketch 47.1 (45422) - http://www.bohemiancoding.com/sketch -->
    <title>logo_white</title>
    <desc>Created with Sketch.</desc>
    <defs></defs>
    <g id="Symbols" stroke="none" stroke-width="1" fill="none" fill-rule="evenodd">
        <g id="Desktop/Header/Dark/Transprent/Split_Layout/Logo_sticky" transform="translate(-696.000000, -15.000000)" fill="#FFFFFF">
            <g id="logo_white" transform="translate(695.000000, 15.000000)">
                <g id="Asset-1" transform="translate(1.250000, 0.000000)">
                    <path d="M28.5289855,35.0869565 C28.4891151,34.9888499 28.5219573,34.8762045 28.6083054,34.8148974 C28.6946535,34.7535902 28.8118285,34.7597234 28.8913043,34.8297101 C31.634058,37.2463768 35.2028986,37.7681159 37.9492754,36.6775362 C40.9131561,35.5905632 42.8835411,32.7692318 42.8835411,29.6123188 C42.8835411,26.4554059 40.9131561,23.6340745 37.9492754,22.5471014 C36.368694,21.9518164 34.6458456,21.8445328 33.0036232,22.2391304 C31.4695383,22.614526 30.0511634,23.3610391 28.8731884,24.4130435 C28.7933984,24.4853811 28.6739023,24.4921054 28.5865005,24.4291761 C28.4990987,24.3662468 28.4675745,24.2507879 28.5108696,24.1521739 C29.2701461,22.4817399 30.5383737,21.094299 32.134058,20.1884058 C34.1724121,19.0417902 36.551809,18.6565667 38.8478261,19.1014493 C41.2439953,19.5754032 43.400179,20.8693696 44.9456522,22.7608696 C48.199036,26.7369298 48.199036,32.4550992 44.9456522,36.4311594 C43.4005216,38.3205961 41.2458024,39.6131714 38.8514493,40.0869565 C36.5566195,40.5325541 34.1781108,40.1472665 32.1413043,39 C30.5619803,38.1000087 29.3000839,36.7330598 28.5289855,35.0869565 L28.5289855,35.0869565 Z" id="Shape" fill-rule="nonzero"></path>
                    <path d="M19.25,24.1557971 C19.2932951,24.2544111 19.2617709,24.3698699 19.1743691,24.4327993 C19.0869673,24.4957286 18.9674712,24.4890043 18.8876812,24.4166667 C17.7138752,23.3586702 16.2939102,22.6113202 14.7572464,22.2427536 C13.1138376,21.8478608 11.3897471,21.9551431 9.80797101,22.5507246 C6.84409032,23.6376977 4.87370523,26.4590291 4.87370523,29.615942 C4.87370523,32.772855 6.84409032,35.5941864 9.80797101,36.6811594 C12.5615942,37.7681159 16.1268116,37.25 18.865942,34.8369565 C18.9430368,34.7567394 19.0672354,34.7450403 19.1579535,34.8094501 C19.2486715,34.8738599 19.2785747,34.9949713 19.2282609,35.0942029 C18.4658265,36.757922 17.1979149,38.1386778 15.6050725,39.0398551 C13.56693,40.1870759 11.1873115,40.5723352 8.89130435,40.1268116 C6.4947225,39.645575 4.34091629,38.3438099 2.80072464,36.4456522 C-0.452659155,32.469592 -0.452659155,26.7514225 2.80072464,22.7753623 C4.34677167,20.8852101 6.50288654,19.5925661 8.89855072,19.1195652 C11.1933905,18.6746096 13.5716771,19.0598612 15.6086957,20.2065217 C17.2042267,21.1114885 18.4772653,22.492197 19.25,24.1557971 Z" id="Shape" fill-rule="nonzero"></path>
                    <path d="M13.7934783,49.942029 C13.6528525,49.9323711 13.536224,49.8295098 13.5090698,49.6911931 C13.4819156,49.5528764 13.5509993,49.4135563 13.6775362,49.3514493 C18.423913,47.0072464 23.6195652,39.2934783 23.6195652,31.8043478 C23.6195652,31.1992754 24.1449275,31.1992754 24.1449275,31.8043478 C24.1449275,39.2971014 29.3333333,47.0217391 34.0869565,49.3514493 C34.2134934,49.4135563 34.2825771,49.5528764 34.2554229,49.6911931 C34.2282687,49.8295098 34.1116402,49.9323711 33.9710145,49.942029 L13.7934783,49.942029 Z" id="Shape" fill-rule="nonzero"></path>
                    <path d="M34.7318841,14.1594203 C29.101634,16.3730554 25.0594868,21.396119 24.1014493,27.3695652 C24.105711,27.3996081 24.105711,27.4301021 24.1014493,27.4601449 C24.0695253,27.5423687 23.9903776,27.5965429 23.9021739,27.5965429 C23.8139702,27.5965429 23.7348226,27.5423687 23.7028986,27.4601449 C23.6986368,27.4301021 23.6986368,27.3996081 23.7028986,27.3695652 C22.7400759,21.3891216 18.6854264,16.3642228 13.0434783,14.1594203 C12.9585053,14.1251512 12.9028603,14.04271 12.9028603,13.951087 C12.9028603,13.8594639 12.9585053,13.7770228 13.0434783,13.7427536 C18.6614971,11.524227 22.6972131,6.51261656 23.6666667,0.550724638 C23.6666667,0.430662736 23.7639961,0.333333333 23.884058,0.333333333 C24.0041199,0.333333333 24.1014493,0.430662736 24.1014493,0.550724638 C25.075019,6.51305849 29.1128316,11.5238546 34.7318841,13.7427536 C34.816857,13.7770228 34.872502,13.8594639 34.872502,13.951087 C34.872502,14.04271 34.816857,14.1251512 34.7318841,14.1594203 Z" id="Shape" fill-rule="nonzero"></path>
                </g>
            </g>
        </g>
    </g>
</svg>