<?xml version="1.0" encoding="UTF-8"?>
<svg width="40px" height="48px" viewBox="0 0 40 48" version="1.1" xmlns="http://www.w3.org/2000/svg" xmlns:xlink="http://www.w3.org/1999/xlink">
    <!-- Generator: Sketch 47.1 (45422) - http://www.bohemiancoding.com/sketch -->
    <title>shield - simple-line-icons</title>
    <desc>Created with Sketch.</desc>
    <defs></defs>
    <g id="Cryptonia---Landing" stroke="none" stroke-width="1" fill="none" fill-rule="evenodd">
        <g id="Baza_Foundation/Homepage" transform="translate(-264.000000, -2147.000000)" fill="#304FFE">
            <g id="1" transform="translate(0.000000, 1780.000000)">
                <g id="Group-23" transform="translate(234.000000, 341.000000)">
                    <path d="M68.5625,32.75 C68.8750016,33.0625016 69.1093742,33.4062481 69.265625,33.78125 C69.4218758,34.1562519 69.5,34.546873 69.5,34.953125 L69.5,42.453125 C69.5,49.3906597 68.5468845,54.9218544 66.640625,59.046875 C64.7343655,63.1718956 62.6171991,66.3281141 60.2890625,68.515625 C57.9609259,70.7031359 55.7890726,72.1406216 53.7734375,72.828125 C51.7578024,73.5156284 50.6562509,73.8749998 50.46875,73.90625 C50.3749995,73.9375002 50.2812505,73.953125 50.1875,73.953125 L49.671875,73.953125 C49.5781245,73.953125 49.4843755,73.9375002 49.390625,73.90625 C49.2031241,73.8749998 48.109385,73.5156284 46.109375,72.828125 C44.109365,72.1406216 41.9531366,70.7031359 39.640625,68.515625 C37.3281134,66.3281141 35.226572,63.1718956 33.3359375,59.046875 C31.445303,54.9218544 30.5,49.3906597 30.5,42.453125 L30.5,34.953125 C30.5,34.546873 30.5781242,34.1562519 30.734375,33.78125 C30.8906258,33.4062481 31.1249984,33.0781264 31.4375,32.796875 C31.7187514,32.5156236 32.0390607,32.3046882 32.3984375,32.1640625 C32.7578143,32.0234368 33.1249981,31.953125 33.5,31.953125 L33.6875,31.953125 C33.7187502,31.953125 33.8437489,31.9609374 34.0625,31.9765625 C34.2812511,31.9921876 34.5781231,32 34.953125,32 C35.5781281,32 36.4531194,31.9609379 37.578125,31.8828125 C38.7031306,31.8046871 39.8437442,31.6250014 41,31.34375 C42.7812589,30.9062478 44.4218675,30.0078193 45.921875,28.6484375 C47.4218825,27.2890557 48.2031247,26.5937502 48.265625,26.5625 C48.5156262,26.3749991 48.7812486,26.2421879 49.0625,26.1640625 C49.3437514,26.0859371 49.6406234,26.046875 49.953125,26.046875 C50.2343764,26.046875 50.5156236,26.0859371 50.796875,26.1640625 C51.0781264,26.2421879 51.3437488,26.3749991 51.59375,26.5625 C52.0937525,26.8750016 53.0859301,27.6562438 54.5703125,28.90625 C56.0546949,30.1562562 57.5468675,30.9687481 59.046875,31.34375 C60.2031308,31.6250014 61.335932,31.8046871 62.4453125,31.8828125 C63.554693,31.9609379 64.4218719,32 65.046875,32 C65.4218769,32 65.7187489,31.9921876 65.9375,31.9765625 C66.1562511,31.9609374 66.2812498,31.953125 66.3125,31.953125 L66.5,31.953125 C66.8750019,31.953125 67.2421857,32.0234368 67.6015625,32.1640625 C67.9609393,32.3046882 68.2812486,32.4999988 68.5625,32.75 Z M66.5,42.453125 L66.5,34.953125 L66.1015625,34.9765625 C65.8359362,34.9921876 65.4843772,35 65.046875,35 C64.2343709,35 63.2265685,34.9531255 62.0234375,34.859375 C60.8203065,34.7656245 59.5781314,34.5625016 58.296875,34.25 C56.2343647,33.7499975 54.3281337,32.7578199 52.578125,31.2734375 L49.953125,29.046875 L47.3984375,31.2734375 C45.695304,32.7578199 43.8125103,33.7499975 41.75,34.25 C40.4687436,34.5625016 39.2187561,34.7656245 38,34.859375 C36.7812439,34.9531255 35.7656291,35 34.953125,35 C34.5156228,35 34.1640638,34.9921876 33.8984375,34.9765625 L33.5,34.953125 L33.5,42.453125 C33.5,48.859407 34.351554,53.9452937 36.0546875,57.7109375 C37.757821,61.4765813 39.6406147,64.3359277 41.703125,66.2890625 C43.7656353,68.2421973 45.6562414,69.5078096 47.375,70.0859375 L49.953125,70.953125 L52.53125,70.0859375 C54.2500086,69.5078096 56.1484271,68.2421973 58.2265625,66.2890625 C60.3046979,64.3359277 62.2031164,61.4765813 63.921875,57.7109375 C65.6406336,53.9452937 66.5,48.859407 66.5,42.453125 Z M56.375,42.21875 C56.6562514,42.5312516 56.796875,42.890623 56.796875,43.296875 C56.796875,43.703127 56.6562514,44.0468736 56.375,44.328125 L52.109375,48.59375 L56.375,52.859375 C56.6562514,53.1406264 56.796875,53.484373 56.796875,53.890625 C56.796875,54.296877 56.6562514,54.6562484 56.375,54.96875 C56.0624984,55.2500014 55.703127,55.390625 55.296875,55.390625 C54.890623,55.390625 54.5312516,55.2500014 54.21875,54.96875 L50,50.703125 L45.734375,54.96875 C45.4531236,55.2500014 45.1015646,55.390625 44.6796875,55.390625 C44.2578104,55.390625 43.9062514,55.2500014 43.625,54.96875 C43.3437486,54.6562484 43.203125,54.296877 43.203125,53.890625 C43.203125,53.484373 43.3437486,53.1406264 43.625,52.859375 L47.890625,48.59375 L43.625,44.328125 C43.3437486,44.0468736 43.203125,43.703127 43.203125,43.296875 C43.203125,42.890623 43.3437486,42.5312516 43.625,42.21875 C43.9062514,41.9374986 44.2578104,41.796875 44.6796875,41.796875 C45.1015646,41.796875 45.4531236,41.9374986 45.734375,42.21875 L50,46.484375 L54.21875,42.21875 C54.5312516,41.9374986 54.890623,41.796875 55.296875,41.796875 C55.703127,41.796875 56.0624984,41.9374986 56.375,42.21875 Z" id="shield---simple-line-icons"></path>
                </g>
            </g>
        </g>
    </g>
</svg>