<?xml version="1.0" encoding="UTF-8"?>
<svg width="42px" height="48px" viewBox="0 0 42 48" version="1.1" xmlns="http://www.w3.org/2000/svg" xmlns:xlink="http://www.w3.org/1999/xlink">
    <!-- Generator: Sketch 47.1 (45422) - http://www.bohemiancoding.com/sketch -->
    <title>Notebook - simple-line-icons</title>
    <desc>Created with Sketch.</desc>
    <defs></defs>
    <g id="Cryptonia---Landing" stroke="none" stroke-width="1" fill="none" fill-rule="evenodd">
        <g id="Baza_Foundation/Homepage" transform="translate(-698.000000, -2147.000000)" fill="#304FFE">
            <g id="2" transform="translate(566.000000, 1780.000000)">
                <g id="Group-24" transform="translate(103.000000, 341.000000)">
                    <path d="M65.796875,26 C67.0468812,26 68.1093706,26.4374956 68.984375,27.3125 C69.8593794,28.1875044 70.296875,29.2499938 70.296875,30.5 L70.296875,69.5 C70.296875,70.7500062 69.8593794,71.8124956 68.984375,72.6875 C68.1093706,73.5625044 67.0468812,74 65.796875,74 L35.84375,74 C35.2812472,74 34.6328162,73.8125019 33.8984375,73.4375 C33.1640588,73.0624981 32.796875,72.2500062 32.796875,71 L32.796875,64.953125 L31.25,64.953125 C30.8749981,64.953125 30.539064,64.804689 30.2421875,64.5078125 C29.945311,64.210936 29.796875,63.859377 29.796875,63.453125 C29.796875,63.046873 29.945311,62.7031264 30.2421875,62.421875 C30.539064,62.1406236 30.8749981,62 31.25,62 L32.796875,62 L32.796875,56 L31.25,56 C30.8749981,56 30.539064,55.851564 30.2421875,55.5546875 C29.945311,55.257811 29.796875,54.906252 29.796875,54.5 C29.796875,54.093748 29.945311,53.7500014 30.2421875,53.46875 C30.539064,53.1874986 30.8749981,53.046875 31.25,53.046875 L32.796875,53.046875 L32.796875,46.953125 L31.296875,46.953125 C30.890623,46.953125 30.5468764,46.8125014 30.265625,46.53125 C29.9843736,46.2499986 29.84375,45.906252 29.84375,45.5 C29.84375,45.093748 29.9843736,44.7500014 30.265625,44.46875 C30.5468764,44.1874986 30.890623,44.046875 31.296875,44.046875 L32.796875,44.046875 L32.796875,38 L31.15625,38 C30.749998,38 30.4062514,37.8593764 30.125,37.578125 C29.8437486,37.2968736 29.703125,36.953127 29.703125,36.546875 C29.703125,36.140623 29.8437486,35.789064 30.125,35.4921875 C30.4062514,35.195311 30.749998,35.046875 31.15625,35.046875 L32.796875,35.046875 L32.796875,29.09375 C32.796875,28.3437462 33.0468725,27.6406283 33.546875,26.984375 C34.0468775,26.3281217 34.8281197,26 35.890625,26 L65.796875,26 Z M35.796875,71 L59.796875,71 L59.796875,29 L35.796875,29 L35.796875,35.046875 L37.25,35.046875 C37.656252,35.046875 37.9999986,35.195311 38.28125,35.4921875 C38.5625014,35.789064 38.703125,36.140623 38.703125,36.546875 C38.703125,36.953127 38.5625014,37.2968736 38.28125,37.578125 C37.9999986,37.8593764 37.656252,38 37.25,38 L35.796875,38 L35.796875,44.046875 L37.390625,44.046875 C37.796877,44.046875 38.1406236,44.1874986 38.421875,44.46875 C38.7031264,44.7500014 38.84375,45.093748 38.84375,45.5 C38.84375,45.906252 38.7031264,46.2499986 38.421875,46.53125 C38.1406236,46.8125014 37.796877,46.953125 37.390625,46.953125 L35.796875,46.953125 L35.796875,53.046875 L37.34375,53.046875 C37.750002,53.046875 38.101561,53.1874986 38.3984375,53.46875 C38.695314,53.7500014 38.84375,54.093748 38.84375,54.5 C38.84375,54.906252 38.695314,55.257811 38.3984375,55.5546875 C38.101561,55.851564 37.750002,56 37.34375,56 L35.796875,56 L35.796875,62 L37.34375,62 C37.750002,62 38.101561,62.1406236 38.3984375,62.421875 C38.695314,62.7031264 38.84375,63.046873 38.84375,63.453125 C38.84375,63.859377 38.695314,64.210936 38.3984375,64.5078125 C38.101561,64.804689 37.750002,64.953125 37.34375,64.953125 L35.796875,64.953125 L35.796875,71 Z M67.296875,69.5 L67.296875,30.5 C67.296875,30.093748 67.148439,29.742189 66.8515625,29.4453125 C66.554686,29.148436 66.203127,29 65.796875,29 L62.796875,29 L62.796875,71 L65.796875,71 C66.203127,71 66.554686,70.851564 66.8515625,70.5546875 C67.148439,70.257811 67.296875,69.906252 67.296875,69.5 Z" id="Notebook---simple-line-icons"></path>
                </g>
            </g>
        </g>
    </g>
</svg>