<?xml version="1.0" encoding="UTF-8"?>
<svg width="49px" height="50px" viewBox="0 0 49 50" version="1.1" xmlns="http://www.w3.org/2000/svg" xmlns:xlink="http://www.w3.org/1999/xlink">
    <!-- Generator: Sketch 47.1 (45422) - http://www.bohemiancoding.com/sketch -->
    <title>Game-controller - simple-line-icons Copy</title>
    <desc>Created with Sketch.</desc>
    <defs></defs>
    <g id="Cryptonia---Landing" stroke="none" stroke-width="1" fill="none" fill-rule="evenodd">
        <g id="Baza_Foundation/Homepage" transform="translate(-1128.000000, -2146.000000)" fill="#304FFE">
            <g id="2" transform="translate(566.000000, 1780.000000)">
                <g id="Group-25" transform="translate(537.000000, 341.000000)">
                    <path d="M60.828125,29.5625 C62.5156334,30.3437539 64.1640545,31.1406209 65.7734375,31.953125 C67.3828205,32.7656291 68.8203062,33.6406203 70.0859375,34.578125 C71.3515688,35.5156297 72.3515588,36.5312445 73.0859375,37.625 C73.8203162,38.7187555 74.1250006,39.9374933 74,41.28125 C73.9062495,42.6250067 73.4453166,43.7343706 72.6171875,44.609375 C71.7890584,45.4843794 70.7500062,46.2265595 69.5,46.8359375 C68.2499938,47.4453155 66.8593827,47.9453105 65.328125,48.3359375 C63.7968673,48.7265645 62.2812575,49.0937483 60.78125,49.4375 C60.3124977,49.5312505 59.8515648,49.6249995 59.3984375,49.71875 C58.9453102,49.8125005 58.515627,49.9218744 58.109375,50.046875 C57.3906214,50.2031258 56.7500028,50.4999978 56.1875,50.9375 C55.6249972,51.3750022 54.8593798,52.0624953 53.890625,53 L53,53.890625 C52.0624953,54.8281297 51.3828146,55.5859346 50.9609375,56.1640625 C50.5390604,56.7421904 50.2343759,57.3906214 50.046875,58.109375 C49.9531245,58.515627 49.851563,58.9453102 49.7421875,59.3984375 C49.632812,59.8515648 49.5312505,60.3124977 49.4375,60.78125 C49.0937483,62.2812575 48.7265645,63.7968673 48.3359375,65.328125 C47.9453105,66.8593827 47.453128,68.2499938 46.859375,69.5 C46.265622,70.7500062 45.523442,71.7890584 44.6328125,72.6171875 C43.742183,73.4453166 42.6250067,73.9218744 41.28125,74.046875 L40.859375,74.046875 C39.5781186,74.046875 38.4140677,73.6640663 37.3671875,72.8984375 C36.3203073,72.1328087 35.3437545,71.1250062 34.4375,69.875 C33.5312455,68.6249938 32.6796915,67.2109454 31.8828125,65.6328125 C31.0859335,64.0546796 30.3125038,62.4531331 29.5625,60.828125 C29.2812486,60.234372 29.0078138,59.6562528 28.7421875,59.09375 C28.4765612,58.5312472 28.2187513,57.9843777 27.96875,57.453125 C27.1249958,55.7968667 26.5468766,54.2187575 26.234375,52.71875 C25.9218734,51.2187425 25.8749989,49.765632 26.09375,48.359375 C26.3125011,46.953118 26.8046837,45.5859441 27.5703125,44.2578125 C28.3359413,42.9296809 29.3593686,41.6250064 30.640625,40.34375 L40.34375,30.59375 C41.343755,29.6249952 42.6484295,28.6093803 44.2578125,27.546875 C45.8671955,26.4843697 47.8281134,25.953125 50.140625,25.953125 C51.2968808,25.953125 52.4765565,26.1171859 53.6796875,26.4453125 C54.8828185,26.7734391 56.1406184,27.2656217 57.453125,27.921875 C57.9843777,28.1718762 58.5312472,28.4374986 59.09375,28.71875 C59.6562528,29.0000014 60.234372,29.2812486 60.828125,29.5625 Z M70.90625,41 C71.0000005,39.999995 70.5546924,39.0312547 69.5703125,38.09375 C68.5859326,37.1562453 67.3437575,36.2578168 65.84375,35.3984375 C64.3437425,34.5390582 62.7109463,33.7031291 60.9453125,32.890625 C59.1796787,32.0781209 57.5468825,31.2968787 56.046875,30.546875 C54.9218694,29.9843722 53.8671924,29.5703138 52.8828125,29.3046875 C51.8984326,29.0390612 50.9531295,28.90625 50.046875,28.90625 C48.6093678,28.90625 47.2734437,29.2421841 46.0390625,29.9140625 C44.8046813,30.5859409 43.5937559,31.5156191 42.40625,32.703125 C42.0312481,33.0781269 41.6093773,33.4921852 41.140625,33.9453125 C40.6718727,34.3984398 40.1562528,34.9062472 39.59375,35.46875 C38.8124961,36.2812541 38.0781284,37.0312466 37.390625,37.71875 C36.7031216,38.4062534 36.062503,39.0312472 35.46875,39.59375 C34.9374973,40.1562528 34.4375023,40.6640602 33.96875,41.1171875 C33.4999977,41.5703148 33.0781269,41.9843731 32.703125,42.359375 C30.7968655,44.2968847 29.5937525,46.320302 29.09375,48.4296875 C28.5937475,50.539073 29.0937425,53.0781102 30.59375,56.046875 C31.3437537,57.5156323 32.1093711,59.1171788 32.890625,60.8515625 C33.6718789,62.5859462 34.4843708,64.2031175 35.328125,65.703125 C36.1718792,67.2031325 37.0546829,68.45312 37.9765625,69.453125 C38.8984421,70.45313 39.8437452,70.953125 40.8125,70.953125 L41.046875,70.953125 C41.9843797,70.8593745 42.7656219,70.3359423 43.390625,69.3828125 C44.0156281,68.4296827 44.5546852,67.2578195 45.0078125,65.8671875 C45.4609398,64.4765555 45.8515609,63.0078202 46.1796875,61.4609375 C46.5078141,59.9140548 46.8281234,58.5156312 47.140625,57.265625 C47.3906262,56.1718695 47.8203095,55.2265665 48.4296875,54.4296875 C49.0390655,53.6328085 49.843745,52.7187552 50.84375,51.6875 C50.9375005,51.6249997 51.0156247,51.5625003 51.078125,51.5 C51.1406253,51.4374997 51.2031247,51.3593755 51.265625,51.265625 C51.3593755,51.2031247 51.4374997,51.1406253 51.5,51.078125 L51.734375,50.84375 C52.73438,49.843745 53.6328085,49.0390655 54.4296875,48.4296875 C55.2265665,47.8203095 56.1718695,47.3750014 57.265625,47.09375 C58.5156312,46.7812484 59.9140548,46.4687516 61.4609375,46.15625 C63.0078202,45.8437484 64.4687431,45.4609398 65.84375,45.0078125 C67.2187569,44.5546852 68.3906202,44.0078157 69.359375,43.3671875 C70.3281298,42.7265593 70.8437497,41.9375047 70.90625,41 Z M48.453125,42.453125 L48.453125,39.453125 L51.453125,39.453125 L51.453125,42.453125 L48.453125,42.453125 Z M48.453125,37.953125 L48.453125,34.953125 L51.453125,34.953125 L51.453125,37.953125 L48.453125,37.953125 Z M52.953125,37.953125 L52.953125,34.953125 L55.953125,34.953125 L55.953125,37.953125 L52.953125,37.953125 Z M52.953125,42.453125 L52.953125,39.453125 L55.953125,39.453125 L55.953125,42.453125 L52.953125,42.453125 Z M41.46875,51.453125 L42.640625,52.625 C42.9218764,52.9062514 43.0625,53.249998 43.0625,53.65625 C43.0625,54.062502 42.9218764,54.4062486 42.640625,54.6875 C42.3593736,54.9687514 42.015627,55.109375 41.609375,55.109375 C41.203123,55.109375 40.8593764,54.9687514 40.578125,54.6875 L39.40625,53.515625 L38.28125,54.640625 C37.9999986,54.9218764 37.6640645,55.0625 37.2734375,55.0625 C36.8828105,55.0625 36.5468764,54.9218764 36.265625,54.640625 C35.9843736,54.3593736 35.84375,54.0234395 35.84375,53.6328125 C35.84375,53.2421855 35.9843736,52.9062514 36.265625,52.625 L37.390625,51.453125 L36.265625,50.328125 C35.9843736,50.0468736 35.84375,49.7109395 35.84375,49.3203125 C35.84375,48.9296855 35.9843736,48.5937514 36.265625,48.3125 C36.5468764,48.0312486 36.8828105,47.890625 37.2734375,47.890625 C37.6640645,47.890625 37.9999986,48.0312486 38.28125,48.3125 L39.40625,49.4375 L40.578125,48.3125 C40.8593764,48.0312486 41.1953105,47.890625 41.5859375,47.890625 C41.9765645,47.890625 42.3124986,48.0312486 42.59375,48.3125 C42.8750014,48.5937514 43.015625,48.9296855 43.015625,49.3203125 C43.015625,49.7109395 42.8750014,50.0468736 42.59375,50.328125 L41.46875,51.453125 Z" id="Game-controller---simple-line-icons-Copy"></path>
                </g>
            </g>
        </g>
    </g>
</svg>