<?xml version="1.0" encoding="UTF-8"?>
<svg width="50px" height="48px" viewBox="0 0 50 48" version="1.1" xmlns="http://www.w3.org/2000/svg" xmlns:xlink="http://www.w3.org/1999/xlink">
    <!-- Generator: Sketch 47.1 (45422) - http://www.bohemiancoding.com/sketch -->
    <title>Badge - simple-line-icons</title>
    <desc>Created with Sketch.</desc>
    <defs></defs>
    <g id="Cryptonia---Landing" stroke="none" stroke-width="1" fill="none" fill-rule="evenodd">
        <g id="Baza_Foundation/Homepage" transform="translate(-904.000000, -1806.000000)" fill="#304FFE">
            <g id="2" transform="translate(566.000000, 1780.000000)">
                <g id="Group-26" transform="translate(313.000000, 0.000000)">
                    <path d="M73.859375,65.375 C74.0156258,65.6250012 74.0781252,65.898436 74.046875,66.1953125 C74.0156248,66.492189 73.9062509,66.7656238 73.71875,67.015625 C73.5624992,67.2343761 73.3437514,67.398437 73.0625,67.5078125 C72.7812486,67.617188 72.5000014,67.6250005 72.21875,67.53125 L64.671875,65.84375 L62.09375,73.015625 C61.9999995,73.2968764 61.8359387,73.5234366 61.6015625,73.6953125 C61.3671863,73.8671884 61.1093764,73.9687498 60.828125,74 L60.6875,74 C60.4062486,74 60.1484387,73.9296882 59.9140625,73.7890625 C59.6796863,73.6484368 59.5000006,73.4531262 59.375,73.203125 L51.546875,58.90625 C51.2968738,58.9375002 51.0390638,58.9609374 50.7734375,58.9765625 C50.5078112,58.9921876 50.2500012,59 50,59 C49.7187486,59 49.4375014,58.9921876 49.15625,58.9765625 C48.8749986,58.9609374 48.5937514,58.9375002 48.3125,58.90625 L40.625,73.203125 C40.4999994,73.4531262 40.3203137,73.6484368 40.0859375,73.7890625 C39.8515613,73.9296882 39.5937514,74 39.3125,74 L39.21875,74 C38.9062484,73.9687498 38.6328137,73.8671884 38.3984375,73.6953125 C38.1640613,73.5234366 38.0000005,73.2968764 37.90625,73.015625 L35.328125,65.84375 L27.78125,67.53125 C27.4999986,67.6250005 27.2187514,67.617188 26.9375,67.5078125 C26.6562486,67.398437 26.4375008,67.2187512 26.28125,66.96875 C26.0937491,66.7499989 25.9843752,66.492189 25.953125,66.1953125 C25.9218748,65.898436 25.9843742,65.6250012 26.140625,65.375 L34.953125,49.296875 C34.4843727,48.2656198 34.1250012,47.1796932 33.875,46.0390625 C33.6249988,44.8984318 33.5,43.7187561 33.5,42.5 C33.5,40.2187386 33.9296832,38.078135 34.7890625,36.078125 C35.6484418,34.078115 36.8281175,32.3281325 38.328125,30.828125 C39.8281325,29.3281175 41.578115,28.1484418 43.578125,27.2890625 C45.578135,26.4296832 47.7187386,26 50,26 C52.2812614,26 54.421865,26.4296832 56.421875,27.2890625 C58.421885,28.1484418 60.1640551,29.3281175 61.6484375,30.828125 C63.1328199,32.3281325 64.3124956,34.078115 65.1875,36.078125 C66.0625044,38.078135 66.5,40.2187386 66.5,42.5 C66.5,43.6875059 66.3750012,44.835932 66.125,45.9453125 C65.8749988,47.054693 65.5312522,48.1249948 65.09375,49.15625 L73.859375,65.375 Z M39.59375,68.796875 L45.21875,58.296875 C43.4999914,57.7656223 41.9140698,56.9843802 40.4609375,55.953125 C39.0078052,54.9218698 37.7656302,53.703132 36.734375,52.296875 L30.359375,63.875 L35.9375,62.609375 C36.3125019,62.5156245 36.6640609,62.5624991 36.9921875,62.75 C37.3203141,62.9375009 37.5624992,63.2031233 37.71875,63.546875 L39.59375,68.796875 Z M36.5,42.5 C36.5,44.3437592 36.851559,46.0859293 37.5546875,47.7265625 C38.257816,49.3671957 39.2265563,50.7968689 40.4609375,52.015625 C41.6953187,53.2343811 43.1249919,54.2031214 44.75,54.921875 C46.3750081,55.6406286 48.1249906,56 50,56 C51.8437592,56 53.5859293,55.6406286 55.2265625,54.921875 C56.8671957,54.2031214 58.2968689,53.2343811 59.515625,52.015625 C60.7343811,50.7968689 61.695309,49.3671957 62.3984375,47.7265625 C63.101566,46.0859293 63.453125,44.3437592 63.453125,42.5 C63.453125,40.6562408 63.101566,38.9140707 62.3984375,37.2734375 C61.695309,35.6328043 60.7343811,34.2031311 59.515625,32.984375 C58.2968689,31.7656189 56.8671957,30.7968786 55.2265625,30.078125 C53.5859293,29.3593714 51.8437592,29 50,29 C48.1249906,29 46.3750081,29.3593714 44.75,30.078125 C43.1249919,30.7968786 41.6953187,31.7656189 40.4609375,32.984375 C39.2265563,34.2031311 38.257816,35.6328043 37.5546875,37.2734375 C36.851559,38.9140707 36.5,40.6562408 36.5,42.5 Z M64.0625,62.609375 L69.640625,63.875 L63.3125,52.203125 C62.2499947,53.6406322 60.9765699,54.8906197 59.4921875,55.953125 C58.0078051,57.0156303 56.3906337,57.8124973 54.640625,58.34375 L60.40625,68.84375 L62.28125,63.546875 C62.4375008,63.2031233 62.6796859,62.9375009 63.0078125,62.75 C63.3359391,62.5624991 63.6874981,62.5156245 64.0625,62.609375 Z" id="Badge---simple-line-icons"></path>
                </g>
            </g>
        </g>
    </g>
</svg>